<svg width="26" height="26" viewBox="0 0 26 26" fill="none" xmlns="http://www.w3.org/2000/svg">
<path d="M23.3923 7.80358C23.2695 7.34547 23.0285 6.92764 22.6936 6.59189C22.3586 6.25615 21.9413 6.01425 21.4835 5.89042C19.787 5.42458 12.9999 5.417 12.9999 5.417C12.9999 5.417 6.21387 5.40942 4.51629 5.85467C4.05904 5.98483 3.64293 6.23034 3.3079 6.56765C2.97287 6.90495 2.73018 7.32271 2.60312 7.78083C2.1557 9.47733 2.15137 12.996 2.15137 12.996C2.15137 12.996 2.14704 16.532 2.5912 18.2112C2.84037 19.1396 3.57162 19.873 4.50112 20.1233C6.21495 20.5891 12.9836 20.5967 12.9836 20.5967C12.9836 20.5967 19.7707 20.6042 21.4672 20.1601C21.9247 20.0354 22.3418 19.7937 22.6774 19.4588C23.0131 19.1239 23.2557 18.7073 23.3815 18.2502C23.83 16.5548 23.8332 13.0372 23.8332 13.0372C23.8332 13.0372 23.8549 9.50008 23.3923 7.80358ZM10.8289 16.2557L10.8343 9.75575L16.4752 13.0112L10.8289 16.2557Z" fill="white"/>
</svg>
