<svg width="24" height="24" viewBox="0 0 24 24" fill="none" xmlns="http://www.w3.org/2000/svg">
<path d="M21.5369 12.4407C21.4496 12.4407 21.3632 12.4224 21.2834 12.387L15.966 10.0058C15.8569 9.95679 15.7644 9.87732 15.6995 9.77694C15.6345 9.67657 15.6 9.55957 15.6 9.44003C15.6 9.32048 15.6345 9.20348 15.6995 9.10311C15.7644 9.00274 15.8569 8.92326 15.966 8.87426L21.2834 6.50134C21.4335 6.43471 21.6038 6.43024 21.7572 6.4889C21.9106 6.54756 22.0345 6.66459 22.1019 6.81437C22.1684 6.96457 22.1728 7.13504 22.114 7.28844C22.0552 7.44185 21.9379 7.5657 21.788 7.63288L17.7368 9.44085L21.7888 11.2554C21.9184 11.3132 22.0242 11.4137 22.0886 11.5401C22.153 11.6665 22.172 11.8112 22.1425 11.95C22.113 12.0888 22.0368 12.2132 21.9266 12.3025C21.8163 12.3918 21.6788 12.4406 21.5369 12.4407Z" fill="white"/>
<path d="M14.2902 21.0791C8.44417 21.0791 3.33328 17.1328 1.86393 11.4817C1.82253 11.3228 1.84596 11.1539 1.92906 11.0123C2.01216 10.8706 2.14813 10.7678 2.30705 10.7264C2.46597 10.685 2.63483 10.7084 2.77648 10.7915C2.91813 10.8746 3.02097 11.0106 3.06237 11.1695C3.71055 13.6535 5.16445 15.8522 7.19626 17.4213C9.22808 18.9904 11.723 19.8411 14.2902 19.8402C14.4544 19.8402 14.612 19.9055 14.7282 20.0216C14.8443 20.1378 14.9096 20.2954 14.9096 20.4596C14.9096 20.6239 14.8443 20.7815 14.7282 20.8977C14.612 21.0138 14.4544 21.0791 14.2902 21.0791Z" fill="white"/>
<path d="M12.1559 15.9352C11.9916 15.9352 11.8341 15.8699 11.7179 15.7538C11.6017 15.6376 11.5365 15.48 11.5365 15.3157V3.54035C11.5365 3.37606 11.6017 3.2185 11.7179 3.10233C11.8341 2.98616 11.9916 2.9209 12.1559 2.9209C12.3202 2.9209 12.4778 2.98616 12.5939 3.10233C12.7101 3.2185 12.7754 3.37606 12.7754 3.54035V15.3157C12.7754 15.48 12.7101 15.6376 12.5939 15.7538C12.4778 15.8699 12.3202 15.9352 12.1559 15.9352Z" fill="white"/>
</svg>
