<svg width="32" height="32" viewBox="0 0 32 32" fill="none" xmlns="http://www.w3.org/2000/svg">
<g filter="url(#filter0_i_13_2728)">
<rect width="32" height="32" rx="16" fill="white" fill-opacity="0.4"/>
<path d="M15.9999 23C16.2448 23 16.4812 23.09 16.6642 23.2527C16.8473 23.4155 16.9642 23.6397 16.9929 23.883L16.9999 24V25C16.9996 25.2549 16.902 25.5 16.727 25.6854C16.5521 25.8707 16.3129 25.9822 16.0585 25.9972C15.804 26.0121 15.5535 25.9293 15.358 25.7657C15.1626 25.6021 15.037 25.3701 15.0069 25.117L14.9999 25V24C14.9999 23.7348 15.1052 23.4804 15.2928 23.2929C15.4803 23.1054 15.7347 23 15.9999 23ZM22.3129 20.91L22.4069 20.993L23.1069 21.693C23.2862 21.873 23.3903 22.1144 23.3981 22.3684C23.4059 22.6223 23.3167 22.8697 23.1486 23.0603C22.9806 23.2508 22.7463 23.3703 22.4934 23.3944C22.2405 23.4185 21.9879 23.3454 21.7869 23.19L21.6929 23.107L20.9929 22.407C20.8203 22.2347 20.7166 22.0054 20.7013 21.762C20.686 21.5187 20.7602 21.2781 20.9098 21.0856C21.0595 20.8931 21.2743 20.7619 21.5139 20.7166C21.7535 20.6714 22.0013 20.7153 22.2109 20.84L22.3129 20.91ZM11.0069 20.993C11.179 21.1652 11.2825 21.3943 11.2978 21.6373C11.313 21.8803 11.2391 22.1206 11.0899 22.313L11.0069 22.407L10.3069 23.107C10.1269 23.2863 9.88543 23.3905 9.63148 23.3982C9.37754 23.406 9.13016 23.3168 8.93959 23.1488C8.74902 22.9807 8.62956 22.7464 8.60547 22.4935C8.58138 22.2406 8.65446 21.988 8.80987 21.787L8.89287 21.693L9.59287 20.993C9.7804 20.8055 10.0347 20.7002 10.2999 20.7002C10.565 20.7002 10.8193 20.8055 11.0069 20.993ZM7.99987 15C8.25475 15.0003 8.4999 15.0979 8.68524 15.2728C8.87057 15.4478 8.9821 15.687 8.99704 15.9414C9.01198 16.1958 8.92919 16.4464 8.7656 16.6418C8.60201 16.8373 8.36996 16.9629 8.11687 16.993L7.99987 17H6.99987C6.74499 16.9997 6.49984 16.9021 6.3145 16.7272C6.12916 16.5522 6.01763 16.313 6.0027 16.0586C5.98776 15.8042 6.07054 15.5536 6.23413 15.3582C6.39772 15.1627 6.62977 15.0371 6.88287 15.007L6.99987 15H7.99987ZM24.9999 15C25.2547 15.0003 25.4999 15.0979 25.6852 15.2728C25.8706 15.4478 25.9821 15.687 25.997 15.9414C26.012 16.1958 25.9292 16.4464 25.7656 16.6418C25.602 16.8373 25.37 16.9629 25.1169 16.993L24.9999 17H23.9999C23.745 16.9997 23.4998 16.9021 23.3145 16.7272C23.1292 16.5522 23.0176 16.313 23.0027 16.0586C22.9878 15.8042 23.0705 15.5536 23.2341 15.3582C23.3977 15.1627 23.6298 15.0371 23.8829 15.007L23.9999 15H24.9999ZM10.2129 8.81L10.3069 8.893L11.0069 9.593C11.1862 9.77296 11.2903 10.0144 11.2981 10.2684C11.3059 10.5223 11.2167 10.7697 11.0486 10.9603C10.8806 11.1508 10.6463 11.2703 10.3934 11.2944C10.1405 11.3185 9.88786 11.2454 9.68687 11.09L9.59287 11.007L8.89287 10.307C8.72096 10.1347 8.6178 9.90557 8.60273 9.66263C8.58767 9.41969 8.66173 9.17959 8.81103 8.98735C8.96033 8.79511 9.17463 8.66393 9.41374 8.61839C9.65285 8.57285 9.90036 8.61609 10.1099 8.74L10.2129 8.81ZM23.1069 8.893C23.279 9.06519 23.3825 9.29429 23.3978 9.53732C23.413 9.78034 23.3391 10.0206 23.1899 10.213L23.1069 10.307L22.4069 11.007C22.2269 11.1863 21.9854 11.2905 21.7315 11.2982C21.4775 11.306 21.2302 11.2168 21.0396 11.0488C20.849 10.8807 20.7296 10.6464 20.7055 10.3935C20.6814 10.1406 20.7545 9.88799 20.9099 9.687L20.9929 9.593L21.6929 8.893C21.8804 8.70553 22.1347 8.60021 22.3999 8.60021C22.665 8.60021 22.9193 8.70553 23.1069 8.893ZM15.9999 6C16.2448 6.00003 16.4812 6.08996 16.6642 6.25272C16.8473 6.41547 16.9642 6.63975 16.9929 6.883L16.9999 7V8C16.9996 8.25488 16.902 8.50003 16.727 8.68537C16.5521 8.8707 16.3129 8.98223 16.0585 8.99717C15.804 9.01211 15.5535 8.92933 15.358 8.76574C15.1626 8.60214 15.037 8.3701 15.0069 8.117L14.9999 8V7C14.9999 6.73478 15.1052 6.48043 15.2928 6.29289C15.4803 6.10536 15.7347 6 15.9999 6ZM15.9999 11C16.9795 10.9999 17.9377 11.2877 18.7552 11.8275C19.5727 12.3673 20.2137 13.1354 20.5984 14.0364C20.9832 14.9373 21.0948 15.9315 20.9193 16.8953C20.7439 17.8592 20.2892 18.7502 19.6117 19.4579C18.9342 20.1655 18.0637 20.6585 17.1084 20.8756C16.1531 21.0928 15.155 21.0245 14.2382 20.6793C13.3214 20.334 12.5262 19.7271 11.9513 18.9338C11.3765 18.1405 11.0474 17.1958 11.0049 16.217L10.9999 16L11.0049 15.783C11.0608 14.4958 11.6115 13.2798 12.5421 12.3887C13.4727 11.4975 14.7114 11.0001 15.9999 11Z" fill="#FFA402"/>
</g>
<defs>
<filter id="filter0_i_13_2728" x="-4" y="-4" width="36" height="36" filterUnits="userSpaceOnUse" color-interpolation-filters="sRGB">
<feFlood flood-opacity="0" result="BackgroundImageFix"/>
<feBlend mode="normal" in="SourceGraphic" in2="BackgroundImageFix" result="shape"/>
<feColorMatrix in="SourceAlpha" type="matrix" values="0 0 0 0 0 0 0 0 0 0 0 0 0 0 0 0 0 0 127 0" result="hardAlpha"/>
<feOffset dx="-6" dy="-6"/>
<feGaussianBlur stdDeviation="2"/>
<feComposite in2="hardAlpha" operator="arithmetic" k2="-1" k3="1"/>
<feColorMatrix type="matrix" values="0 0 0 0 0.435294 0 0 0 0 0.792157 0 0 0 0 0.890196 0 0 0 0.16 0"/>
<feBlend mode="normal" in2="shape" result="effect1_innerShadow_13_2728"/>
</filter>
</defs>
</svg>
