<svg width="26" height="24" viewBox="0 0 26 24" fill="none" xmlns="http://www.w3.org/2000/svg">
<g clip-path="url(#clip0_52_12)">
<path d="M21.3496 0H4.65039C2.35819 0 0.5 1.82668 0.5 4.08V19.8816C0.5 22.1349 2.35819 23.9616 4.65039 23.9616H21.3496C23.6418 23.9616 25.5 22.1349 25.5 19.8816V4.08C25.5 1.82668 23.6418 0 21.3496 0Z" fill="#470137"/>
<path d="M13.6423 6.30104L10.5228 11.3625L13.8602 16.737C13.8817 16.7746 13.8877 16.8188 13.877 16.8607C13.8719 16.8785 13.8607 16.8829 13.8436 16.8836L13.8247 16.8833L13.8017 16.8827C13.7892 16.8827 13.7752 16.8833 13.7597 16.8858H11.3534L11.3061 16.885C11.1765 16.8817 11.083 16.8634 11.0261 16.7699C10.8034 16.3436 10.5798 15.9177 10.3552 15.4923C10.1542 15.1129 9.94784 14.7363 9.73603 14.3626L9.64247 14.1981C9.38913 13.7555 9.14035 13.3103 8.89618 12.8627H8.87938C8.6539 13.3056 8.42188 13.7453 8.18339 14.1816C7.94283 14.6213 7.70523 15.0582 7.4706 15.4923C7.23579 15.9266 6.9954 16.3581 6.7495 16.7865C6.70995 16.8738 6.64423 16.8921 6.55272 16.895L6.51464 16.8956H4.21708L4.20712 16.8959L4.17431 16.8988C4.15605 16.8998 4.14511 16.896 4.14159 16.8689C4.13534 16.8287 4.1443 16.7877 4.16679 16.7535L7.40351 11.5273L4.25058 6.28472C4.21711 6.24095 4.21151 6.20523 4.23378 6.17759C4.24616 6.1635 4.2617 6.15244 4.27917 6.14528C4.29664 6.13811 4.31557 6.13504 4.33446 6.13631H6.69911C6.75068 6.13356 6.80222 6.14202 6.85009 6.16107C6.89013 6.18344 6.9246 6.21445 6.95067 6.25179C7.15191 6.69147 7.37554 7.13109 7.62157 7.57064C7.86566 8.00736 8.11444 8.44153 8.36786 8.87307C8.6174 9.29794 8.84958 9.73243 9.06386 10.1755H9.08065C9.30025 9.73254 9.52668 9.29287 9.75985 8.85666C9.98889 8.42799 10.2237 7.99656 10.4642 7.56239C10.7015 7.13384 10.9335 6.70245 11.1601 6.26831C11.173 6.2276 11.1961 6.19074 11.2272 6.16107C11.2687 6.14044 11.3152 6.13185 11.3614 6.13631H13.5584C13.5786 6.13136 13.5999 6.13299 13.619 6.14096C13.6382 6.14892 13.6542 6.1628 13.6647 6.18049C13.6752 6.19818 13.6795 6.21873 13.6771 6.23905C13.6746 6.25937 13.6655 6.27836 13.6512 6.29317L13.6423 6.30104ZM18.571 17.0985L18.4554 17.0997C17.6834 17.1113 16.9186 16.9536 16.2164 16.6381C15.5623 16.3405 15.0155 15.8547 14.6483 15.245C14.2781 14.6405 14.0881 13.8874 14.0785 12.9856L14.0781 12.9122C14.0718 12.1555 14.2685 11.4106 14.6484 10.7525C15.0286 10.1011 15.5829 9.5644 16.2512 9.20053L16.3087 9.16981C17.0352 8.7741 17.9129 8.57624 18.9417 8.57624L18.9866 8.57672L19.038 8.57835L19.0956 8.58085L19.1597 8.5845L19.2673 8.59199L19.3891 8.60159L19.4783 8.60927V5.36139C19.4783 5.28453 19.5118 5.24607 19.5789 5.246H21.6921C21.7057 5.24408 21.7197 5.2453 21.7328 5.24959C21.7459 5.25388 21.7578 5.26111 21.7675 5.2707C21.7773 5.2803 21.7847 5.292 21.789 5.30488C21.7934 5.31775 21.7946 5.33145 21.7927 5.34488V15.0884C21.7927 15.2521 21.7991 15.4282 21.812 15.6168L21.8433 16.0445L21.8599 16.2919C21.8619 16.3261 21.8534 16.3602 21.8354 16.3896C21.8175 16.4191 21.7909 16.4425 21.7592 16.4568C21.214 16.6803 20.6462 16.846 20.0653 16.9513C19.5722 17.0408 19.0724 17.09 18.571 17.0985ZM19.4783 15.0554V10.5546C19.3877 10.5305 19.2951 10.5139 19.2016 10.5052C19.0874 10.4938 18.9726 10.4883 18.8578 10.4887C18.4508 10.4846 18.0486 10.575 17.6839 10.7525C17.3286 10.9262 17.0253 11.1875 16.8034 11.5109C16.582 11.8292 16.4675 12.2449 16.46 12.7579L16.4596 12.8133C16.4514 13.1727 16.5111 13.5304 16.6356 13.8683C16.737 14.1407 16.8973 14.3882 17.1054 14.5938C17.3045 14.783 17.5456 14.9241 17.8097 15.0059C18.0886 15.0947 18.3801 15.1393 18.6733 15.1379C18.8298 15.1379 18.9751 15.1324 19.1094 15.1213C19.2165 15.1134 19.3226 15.0961 19.4266 15.0695L19.4783 15.0554Z" fill="#FF61F6"/>
</g>
<defs>
<clipPath id="clip0_52_12">
<rect width="25" height="24" fill="white" transform="translate(0.5)"/>
</clipPath>
</defs>
</svg>
