<svg width="165" height="164" viewBox="0 0 165 164" fill="none" xmlns="http://www.w3.org/2000/svg">
<g filter="url(#filter0_d_11_39)">
<rect x="18.3335" y="10" width="128" height="128" rx="12" fill="#C5AAFE"/>
<g clip-path="url(#clip0_11_39)">
<path fill-rule="evenodd" clip-rule="evenodd" d="M72.3335 54C77.8563 54 82.3335 58.4771 82.3335 64V54H92.3335C97.8563 54 102.333 58.4771 102.333 64C102.333 69.5228 97.8563 74 92.3335 74C97.8563 74 102.333 78.4772 102.333 84C102.333 86.7423 101.23 89.2268 99.442 91.0334L99.4046 91.0711L99.3714 91.1041C97.5644 92.8943 95.0781 94 92.3335 94C89.6076 94 87.1364 92.9093 85.3325 91.1405C85.3091 91.1175 85.2857 91.0943 85.2624 91.0711C85.2405 91.0492 85.2187 91.0272 85.197 91.0051C83.4259 89.2009 82.3335 86.728 82.3335 84C82.3335 89.5228 77.8563 94 72.3335 94C66.8106 94 62.3335 89.5228 62.3335 84V74H72.3335C66.8106 74 62.3335 69.5228 62.3335 64C62.3335 58.4771 66.8106 54 72.3335 54ZM80.3335 64C80.3335 68.4183 76.7518 72 72.3335 72V56C76.7518 56 80.3335 59.5817 80.3335 64ZM100.333 84C100.333 79.5817 96.7518 76 92.3335 76C87.9152 76 84.3335 79.5817 84.3335 84H100.333ZM64.3335 76V84C64.3335 88.4183 67.9152 92 72.3335 92C76.7518 92 80.3335 88.4183 80.3335 84V76H64.3335ZM84.3335 72V56H92.3335C96.7518 56 100.333 59.5817 100.333 64C100.333 68.4183 96.7518 72 92.3335 72H84.3335Z" fill="#5417D7"/>
</g>
</g>
<defs>
<filter id="filter0_d_11_39" x="0.333496" y="0" width="164" height="164" filterUnits="userSpaceOnUse" color-interpolation-filters="sRGB">
<feFlood flood-opacity="0" result="BackgroundImageFix"/>
<feColorMatrix in="SourceAlpha" type="matrix" values="0 0 0 0 0 0 0 0 0 0 0 0 0 0 0 0 0 0 127 0" result="hardAlpha"/>
<feMorphology radius="6" operator="dilate" in="SourceAlpha" result="effect1_dropShadow_11_39"/>
<feOffset dy="8"/>
<feGaussianBlur stdDeviation="6"/>
<feColorMatrix type="matrix" values="0 0 0 0 0 0 0 0 0 0 0 0 0 0 0 0 0 0 0.12 0"/>
<feBlend mode="normal" in2="BackgroundImageFix" result="effect1_dropShadow_11_39"/>
<feBlend mode="normal" in="SourceGraphic" in2="effect1_dropShadow_11_39" result="shape"/>
</filter>
<clipPath id="clip0_11_39">
<rect width="40" height="40" fill="white" transform="translate(62.3335 54)"/>
</clipPath>
</defs>
</svg>
