<svg width="16" height="16" viewBox="0 0 16 16" fill="none" xmlns="http://www.w3.org/2000/svg">
<g clip-path="url(#clip0_191_1251)">
<path d="M0.921708 10.1167C0.593583 9.09473 0.499333 8.01561 0.688332 6.90536C0.770333 6.44486 0.896832 6.00298 1.03546 5.55523C1.03546 5.55523 1.90608 2.69736 4.85233 1.39123C4.85233 1.39123 5.86796 0.854985 7.39483 0.817485C7.39483 0.817485 7.18683 0.61536 7.05408 0.526985C6.33483 0.047485 5.26258 -0.110265 4.61271 0.56511C4.41683 0.766735 4.25271 0.98786 4.07021 1.18961C3.86171 1.41661 3.60921 1.60611 3.31921 1.71299C3.06671 1.80774 2.81421 1.78873 2.55596 1.83311C2.29096 1.87711 2.01933 1.97186 1.80508 2.14224C1.57158 2.33174 1.47696 2.58361 1.45196 2.87411C1.42658 3.10123 1.43296 3.33461 1.42021 3.56161C1.38858 4.23061 1.17421 4.41961 0.694708 4.79211C0.492958 4.94348 0.322583 5.14511 0.196083 5.35998C-0.182292 6.02848 0.423583 6.72223 0.454833 7.39761C0.461333 7.53636 0.448583 7.67498 0.398333 7.80773C0.347458 7.95273 0.246958 8.04748 0.164833 8.16711C0.0510825 8.32498 -0.0245425 8.51436 0.00733252 8.70961C0.0385825 8.90548 0.139583 9.08848 0.234333 9.25898C0.417458 9.56173 0.644458 9.83274 0.884333 10.0915C0.896833 10.0915 0.909208 10.1041 0.921833 10.1169" fill="#E32186"/>
<path d="M12.9598 12.5388C14.411 11.9079 15.0292 10.8167 15.0292 10.8167C16.3857 8.96806 15.9252 7.01881 15.9252 7.01881C15.061 8.89869 14.2718 9.41631 14.2718 9.41631C16.3983 6.17944 14.2846 4.22394 14.2846 4.22394C15.1488 6.06619 14.0008 8.31181 14.0008 8.31181C13.0355 10.3436 11.6663 11.0692 11.6663 11.0692C13.1932 11.3529 14.3163 10.3246 14.3163 10.3246C12.1267 12.6903 9.75471 12.5771 9.75471 12.5771C10.7518 13.6938 12.247 13.5991 12.247 13.5991C10.2913 14.0594 8.45545 13.4096 6.94758 12.1541C6.66202 11.9199 6.39227 11.6671 6.14008 11.3973C6.14008 11.3973 5.91295 11.1576 5.86845 11.0946L5.8622 11.0883C5.83095 12.2552 7.0482 13.3402 7.0482 13.3402C5.52133 12.7094 4.8212 11.3402 4.8212 11.3402C4.8212 11.3402 3.79283 9.58644 4.53745 7.58681C5.28158 5.58681 7.53408 5.15756 7.53408 5.15756C9.39545 6.06006 10.9726 6.34369 10.9726 6.34369C14.2973 6.89881 14.1083 5.27144 14.1083 5.27144C14.1396 3.87056 12.0263 2.38181 12.0263 2.38181C8.25971 -0.413187 4.85295 1.39106 4.85295 1.39106C1.9067 2.69719 1.03608 5.55506 1.03608 5.55506C0.89733 6.00281 0.77108 6.44469 0.688955 6.90506C0.367205 8.77919 0.852955 10.5517 1.9067 12.1293C3.54683 14.5771 6.20945 15.4223 6.20945 15.4223C10.1523 16.7597 12.8462 14.7914 12.8462 14.7914C15.3257 13.0877 15.8242 11.1196 15.8242 11.1196C13.8242 12.6846 12.96 12.5389 12.96 12.5389L12.9598 12.5388ZM9.88121 3.33419C9.92599 3.33402 9.97037 3.34273 10.0118 3.35981C10.0532 3.37689 10.0908 3.402 10.1224 3.43369C10.1541 3.46538 10.1791 3.50303 10.1962 3.54446C10.2132 3.58589 10.2218 3.63028 10.2216 3.67506C10.2218 3.71981 10.2131 3.76416 10.1961 3.80554C10.179 3.84691 10.154 3.88451 10.1223 3.91614C10.0907 3.94778 10.0531 3.97283 10.0117 3.98985C9.9703 4.00688 9.92595 4.01553 9.88121 4.01531C9.83643 4.01554 9.79205 4.00691 9.75063 3.9899C9.70921 3.97289 9.67157 3.94784 9.63988 3.91621C9.60819 3.88458 9.58307 3.84698 9.56599 3.80559C9.5489 3.7642 9.54018 3.71984 9.54033 3.67506C9.54011 3.63024 9.54879 3.58582 9.56584 3.54436C9.58289 3.50291 9.60799 3.46524 9.63969 3.43355C9.67139 3.40185 9.70905 3.37675 9.7505 3.3597C9.79196 3.34264 9.83638 3.33397 9.88121 3.33419Z" fill="url(#paint0_linear_191_1251)"/>
<path d="M14.1013 5.26523C14.1326 3.86435 12.0193 2.3756 12.0193 2.3756C8.25269 -0.413021 4.84594 1.39123 4.84594 1.39123C1.89969 2.69735 1.02907 5.55523 1.02907 5.55523C0.858694 6.0411 0.707319 6.78573 0.707319 6.78573C0.524194 7.71935 0.606194 8.5836 0.606194 8.5836C0.681944 9.41023 0.864944 9.96548 0.864944 9.96548C1.05444 10.5582 1.14244 10.7414 1.14244 10.7414C1.13644 10.7222 1.10482 10.5836 1.10482 10.5836C1.10482 10.5836 0.839569 9.30923 1.08569 8.0851C1.08569 8.0851 1.30007 6.81073 2.17119 5.82685C2.17119 5.82685 3.58432 3.8141 6.21519 4.60273C6.21519 4.60273 6.78307 4.80485 6.97832 4.90548C7.17419 5.00023 7.51457 5.14523 7.51457 5.14523C9.37582 6.0476 10.9529 6.33123 10.9529 6.33123C14.2904 6.89273 14.1014 5.26535 14.1014 5.26535L14.1013 5.26523ZM9.88057 4.0221C9.83578 4.02234 9.79139 4.01369 9.74996 3.99668C9.70854 3.97966 9.67089 3.9546 9.63919 3.92296C9.6075 3.89131 9.58239 3.8537 9.56531 3.8123C9.54824 3.77089 9.53953 3.72652 9.53969 3.68173C9.53948 3.6369 9.54815 3.59248 9.5652 3.55103C9.58226 3.50957 9.60736 3.47191 9.63905 3.44021C9.67075 3.40852 9.70841 3.38342 9.74987 3.36636C9.79132 3.34931 9.83574 3.34064 9.88057 3.34085C9.92536 3.34069 9.96973 3.3494 10.0111 3.36647C10.0525 3.38355 10.0902 3.40866 10.1218 3.44036C10.1534 3.47205 10.1785 3.5097 10.1955 3.55112C10.2125 3.59255 10.2212 3.63694 10.2209 3.68173C10.2212 3.72649 10.2125 3.77085 10.1955 3.81224C10.1784 3.85363 10.1534 3.89124 10.1217 3.92289C10.0901 3.95454 10.0525 3.9796 10.0111 3.99663C9.96969 4.01366 9.92533 4.02232 9.88057 4.0221Z" fill="url(#paint1_radial_191_1251)"/>
<path d="M7.72304 2.72901L5.57167 2.06001C5.55892 2.06001 5.49604 2.02826 5.38216 2.06001C5.38216 2.06001 4.11404 2.38188 4.33491 3.07563C4.33491 3.07563 4.46766 3.51126 4.82704 3.93363L7.19279 3.82026L7.72304 2.72901Z" fill="url(#paint2_linear_191_1251)"/>
</g>
<defs>
<linearGradient id="paint0_linear_191_1251" x1="2.42939" y1="14.6845" x2="10.2799" y2="6.3326" gradientUnits="userSpaceOnUse">
<stop stop-color="#DF1C84"/>
<stop offset="0.401" stop-color="#DE1C85"/>
<stop offset="0.77" stop-color="#932C86"/>
<stop offset="1" stop-color="#5C2F87"/>
</linearGradient>
<radialGradient id="paint1_radial_191_1251" cx="0" cy="0" r="1" gradientUnits="userSpaceOnUse" gradientTransform="translate(11.0708 4.117) rotate(0.136224) scale(7.6705 6.41397)">
<stop stop-color="#DF1C84"/>
<stop offset="0.139" stop-color="#DE1E85"/>
<stop offset="0.285" stop-color="#D62085"/>
<stop offset="0.434" stop-color="#C82286"/>
<stop offset="0.586" stop-color="#B72786"/>
<stop offset="0.739" stop-color="#9C2A86"/>
<stop offset="0.891" stop-color="#7C2E87"/>
<stop offset="1" stop-color="#5C2F87"/>
</radialGradient>
<linearGradient id="paint2_linear_191_1251" x1="4.30426" y1="2.98979" x2="7.72109" y2="2.98979" gradientUnits="userSpaceOnUse">
<stop stop-color="#DF1C84"/>
<stop offset="0.238" stop-color="#D91E85"/>
<stop offset="0.658" stop-color="#C72085"/>
<stop offset="0.999" stop-color="#B42184"/>
</linearGradient>
<clipPath id="clip0_191_1251">
<rect width="16" height="16" fill="white"/>
</clipPath>
</defs>
</svg>
