<svg width="17" height="24" viewBox="0 0 17 24" fill="none" xmlns="http://www.w3.org/2000/svg">
<g clip-path="url(#clip0_191_1267)">
<path d="M16.9707 4.70459L15.4273 22.0138L8.48988 23.9393L1.57154 22.0165L0.0297852 4.70459H16.9707Z" fill="#E44D26"/>
<path d="M8.5 22.4676L14.1058 20.9117L15.4246 6.12012H8.5V22.4676Z" fill="#F16529"/>
<path d="M5.49991 10.3666H8.50014V8.24341H3.18213L3.23286 8.81303L3.75415 14.6641H8.50014V12.5409H5.69375L5.49991 10.3666ZM5.9779 15.7258H3.84891L4.14602 19.0596L8.49038 20.2669L8.50014 20.2642V18.0552L8.49084 18.0576L6.12891 17.4191L5.9779 15.7258Z" fill="#EBEBEB"/>
<path d="M1.60547 0H2.68324V1.06604H3.66918V0H4.74702V3.22823H3.66924V2.14724H2.68331V3.22823H1.60554L1.60547 0ZM6.16426 1.07056H5.21558V0H8.19151V1.07056H7.24223V3.22823H6.16446V1.07056H6.16426ZM8.66379 0H9.78758L10.4789 1.13432L11.1695 0H12.2938V3.22823H11.2204V1.62814L10.4789 2.77596H10.4603L9.71832 1.62814V3.22823H8.66379V0ZM12.8301 0H13.9082V2.1612H15.4239V3.22823H12.8301L12.8301 0Z" fill="black"/>
<path d="M8.49274 14.6641H11.1043L10.8581 17.4178L8.49268 18.0569V20.2659L12.8405 19.0596L12.8724 18.7008L13.3708 13.111L13.4225 12.5409H8.49274V14.6641ZM8.49274 10.3615V10.3666H13.6155L13.658 9.88944L13.7547 8.81303L13.8054 8.24341H8.49274V10.3615Z" fill="white"/>
</g>
<defs>
<clipPath id="clip0_191_1267">
<rect width="17" height="24" fill="white"/>
</clipPath>
</defs>
</svg>
