<svg width="15" height="21" viewBox="0 0 15 21" fill="none" xmlns="http://www.w3.org/2000/svg">
<g clip-path="url(#clip0_191_1261)">
<path d="M7.49066 20.9471L1.38625 19.2646L0.0258789 4.1167H14.9737L13.612 19.2623L7.49066 20.9471Z" fill="#264DE4"/>
<path d="M12.4463 18.2979L13.61 5.35522H7.5V19.6592L12.4463 18.2979Z" fill="#2965F1"/>
<path d="M3.14465 10.9732L3.31234 12.831H7.49998V10.9732H3.14465ZM2.80762 7.21289L2.97771 9.07072H7.49998V7.21289H2.80762ZM7.49998 15.7982L7.49178 15.8003L5.40771 15.2416L5.27447 13.7599H3.39596L3.65811 16.677L7.49137 17.7334L7.49998 17.7311V15.7982Z" fill="#EBEBEB"/>
<path d="M3.54395 0H5.81035V0.940986H4.49176V1.88197H5.81047V2.8229H3.54395V0ZM6.26369 0H8.53016V0.818244H7.2115V0.981881H8.53016V2.86385H6.26375V2.0046H7.5824V1.84096H6.26363L6.26369 0ZM8.9835 0H11.25V0.818244H9.93131V0.981881H11.25V2.86385H8.9835V2.0046H10.3021V1.84096H8.98356L8.9835 0Z" fill="black"/>
<path d="M11.8435 10.9732L12.1813 7.21289H7.49371V9.07072H10.1305L9.96027 10.9732H7.49371V12.831H9.79803L9.58076 15.2405L7.49365 15.7997V17.7326L11.33 16.677L11.3581 16.3631L11.7979 11.4721L11.8435 10.9732Z" fill="white"/>
</g>
<defs>
<clipPath id="clip0_191_1261">
<rect width="15" height="21" fill="white"/>
</clipPath>
</defs>
</svg>
