<svg width="24" height="24" viewBox="0 0 24 24" fill="none" xmlns="http://www.w3.org/2000/svg">
<g clip-path="url(#clip0_191_1291)">
<path d="M12.0002 0L0.78418 3.984L2.49518 18.756L12.0002 24L21.5062 18.756L23.2162 3.984L12.0002 0ZM8.35418 4.212H10.0282L9.19018 6.124L6.68018 5.884L8.35418 4.212ZM10.3862 4.212H11.7012V11.024H10.9842L5.84318 9.112L5.12618 6.124L9.43418 6.474L10.3862 4.212ZM12.1802 4.212H13.4942L14.4472 6.473L18.8742 6.124L18.1572 9.112L13.0172 11.024H12.1802V4.212ZM13.8532 4.212H15.5272L17.2002 5.885L14.6902 6.124L13.8532 4.212ZM5.96318 9.59L7.27818 10.068L8.59318 11.383L9.66918 11.143L8.83218 12.339V16.043L5.96218 13.653L5.96318 9.59ZM17.9182 9.59V13.653L15.0482 16.043V12.339L14.2112 11.144L15.2882 11.383L16.6022 10.068L17.9182 9.59ZM10.1322 11.126L10.7282 11.486H13.1122L13.7092 11.126L14.6622 12.563V17.951L13.9472 19.029L13.1122 19.867H10.7282L9.89418 19.029L9.17918 17.951V12.563L10.1322 11.126ZM7.27818 15.206L8.83218 16.521V18.314L7.27818 16.76V15.206ZM16.6022 15.206V16.76L15.0492 18.314V16.52L16.6022 15.206Z" fill="#DD0031"/>
<path d="M12 0L12.0001 24L21.506 18.756L23.216 3.984L12 0ZM12.18 4.212H13.494L14.447 6.473L18.874 6.124L18.157 9.112L13.017 11.024H12.18V4.212ZM13.853 4.212H15.527L17.2 5.885L14.69 6.124L13.853 4.212ZM17.918 9.59V13.653L15.048 16.043V12.339L14.211 11.144L15.288 11.383L16.602 10.068L17.918 9.59ZM12.0001 11.486H13.112L13.709 11.126L14.662 12.563V17.951L13.947 19.029L13.112 19.867H12.0001L12.0001 11.486ZM16.602 15.206V16.76L15.049 18.314V16.52L16.602 15.206Z" fill="#C3002F"/>
</g>
<defs>
<clipPath id="clip0_191_1291">
<rect width="24" height="24" fill="white"/>
</clipPath>
</defs>
</svg>
